<svg width="512" height="512" viewBox="0 0 512 512" fill="none" xmlns="http://www.w3.org/2000/svg">
<g clip-path="url(#clip0_303_321)">
<g clip-path="url(#clip1_303_321)">
<path d="M203.884 249.861C215.717 249.481 229.132 249.798 241.144 249.795L308.116 249.828C311.22 254.988 313.872 260.248 316.741 265.528C322.279 275.908 328.039 286.17 334.017 296.303L307.795 296.252L223.672 296.266C208.541 296.309 193.411 296.264 178.281 296.13C187.026 280.825 195.561 265.4 203.884 249.861Z" fill="#5C8DB5"/>
<path d="M317.105 249.892C335.303 249.374 355.935 249.845 374.36 249.832L404.8 249.812C407.971 249.811 423.442 249.367 425.332 250.613C430.672 254.132 437.201 258.855 442.477 262.596C452.33 269.475 462.115 276.45 471.831 283.521C474.412 285.373 488.179 294.888 489.607 296.4C472.745 296.616 455.404 296.385 438.512 296.365L343.732 296.305C341.043 292.333 337.785 285.93 335.24 281.569C331.016 274.402 326.844 267.205 322.725 259.976C321.648 258.117 317.532 251.386 317.105 249.892Z" fill="#5C8DB5"/>
<path d="M101.039 249.904L194.956 249.809C191.363 257.323 185.138 266.9 180.886 274.413C177.287 280.773 172.05 290.545 168.018 296.284L116.88 296.285C85.2964 296.02 53.712 296.013 22.1289 296.262C28.5427 291.459 35.1833 287.06 41.6752 282.382C56.6908 271.404 71.8452 260.619 87.1345 250.027C91.4958 249.827 96.6195 249.926 101.039 249.904Z" fill="#5C8DB5"/>
<path d="M300.051 187.956C318.728 187.774 337.686 187.991 356.391 187.976L376.615 187.941C380.346 187.934 384.155 187.872 387.878 188.031C388.595 188.062 389.606 188.219 390.222 188.6C394.763 191.408 399.357 194.364 403.839 197.254L435.179 217.906C437.531 219.456 449.727 226.999 450.874 228.313C445.195 228.56 438.728 228.419 432.973 228.414H403.325C378.118 228.421 352.351 228.687 327.188 228.299C317.838 215.059 308.79 201.607 300.051 187.956Z" fill="#5C8DB5"/>
<path d="M122.565 187.92L212.012 187.942C203.691 201.25 193.787 214.967 185.392 228.218C173.59 228.397 161.787 228.462 149.984 228.414L60.7891 228.407C64.8734 225.321 73.7966 219.914 78.5116 216.796L122.565 187.92Z" fill="#5C8DB5"/>
<path d="M160.143 161.941C179.083 161.715 198.473 161.922 217.445 161.916L351.905 161.925L380.82 181.636C371.245 181.505 361.67 181.445 352.095 181.453C278.744 181.738 204.648 180.59 131.383 181.664C140.989 175.378 150.448 168.092 160.143 161.941Z" fill="#FEAE0E"/>
<path d="M217.791 188.025L294.982 188.088C299.658 195.603 304.412 203.069 309.241 210.487C312.922 216.234 316.897 222.729 320.858 228.214L293.783 228.294L191.289 228.237C191.944 227.062 195.992 220.897 196.563 220.21C200.03 216.039 214.845 189.535 217.791 188.025Z" fill="#5C8DB5"/>
<path d="M190.166 323.178L322.237 323.199C326.888 331.92 332.171 341.326 336.482 350.14L321.78 350.124L175.258 350.105C176.894 346.703 179.259 342.801 181.155 339.439L190.166 323.178Z" fill="#5C8DB5"/>
<path d="M58.6767 323.289C70.988 322.878 85.538 323.201 98.0124 323.182L178.687 323.237C173.774 331.854 168.585 341.665 163.584 350.065L139.594 350.088L19.5273 350.185C28.968 344.494 38.7661 336.407 48.008 330.179C50.4786 328.513 56.0699 324.27 58.6767 323.289Z" fill="#5C8DB5"/>
<path d="M333.113 323.189L453.76 323.321C458.09 325.926 463.428 329.897 467.665 332.885L491.844 350.046C487.393 350.353 480.031 350.118 475.426 350.11L445.208 350.085L348.522 350.051C347.238 347.365 344.6 343.17 343.049 340.494L333.113 323.189Z" fill="#5C8DB5"/>
<path d="M201.423 302.655C214.441 302.99 228.633 302.844 241.729 302.853L310.928 302.824C313.771 307.28 316.033 311.777 318.361 316.508C316.187 316.351 313.266 316.396 311.036 316.367L193.785 316.363C195.915 311.995 198.883 306.805 201.423 302.655Z" fill="#FEAE0E"/>
<path d="M189.434 302.758C189.459 304.175 183.314 314.671 182.19 316.619C169.299 315.998 153.746 316.369 140.663 316.366L66.9644 316.308L66.7375 316.134L66.7031 315.778C71.5606 311.897 79.1231 306.647 84.3675 302.904C96.1756 302.56 109.448 302.854 121.341 302.863L189.434 302.758Z" fill="#FEAE0E"/>
<path d="M322.762 302.867L426.967 302.91C429.791 304.581 433.945 307.954 436.834 309.972C439.149 311.588 443.999 314.708 445.735 316.318C443.519 316.572 436.432 316.387 433.962 316.379L409.864 316.341L329.66 316.598C327.045 312.236 324.58 307.612 322.762 302.867Z" fill="#FEAE0E"/>
<path d="M203.746 233.354L204.275 233.364C204.318 234.822 199.757 242.324 198.797 244.012L97.1702 243.852L96.0026 243.824L95.6914 243.412C96.4714 242.539 108.057 234.479 109.417 233.633C118.736 233.132 131.558 233.523 141.207 233.518L203.746 233.354Z" fill="#FEAE0E"/>
<path d="M307.859 233.501C338.896 233.619 371.334 233.945 402.274 233.414C405.059 235.314 414.978 241.917 416.734 243.83C406.399 244.276 392.984 243.852 382.408 243.875L313.349 243.973C311.471 240.508 309.641 237.017 307.859 233.501Z" fill="#FEAE0E"/>
<path d="M213.332 233.242C222.241 233.759 234.458 233.425 243.615 233.426L299.667 233.436C301.583 237.118 303.315 240.425 305.442 243.988L299.55 243.923L241.361 243.988C230.24 243.988 218.358 243.725 207.301 244.04C209.273 240.42 211.284 236.82 213.332 233.242Z" fill="#FEAE0E"/>
</g>
</g>
<defs>
<clipPath id="clip0_303_321">
<rect width="512" height="512" fill="white"/>
</clipPath>
<clipPath id="clip1_303_321">
<rect width="640" height="640" fill="white" transform="translate(-64 -64)"/>
</clipPath>
</defs>
</svg>
