<svg width="1200" height="400" viewBox="0 0 1200 400" fill="none" xmlns="http://www.w3.org/2000/svg">
<g clip-path="url(#clip0_303_322)">
<path d="M1088.37 200H1074.25V121.6H1088.37V164.944H1090.38L1108.75 144.448H1127.12L1101.47 171.328L1128.01 200H1109.87L1090.38 177.936H1088.37V200Z" fill="#5C8DB5"/>
<path d="M1036.96 201.568C1020.84 201.568 1008.18 191.152 1008.18 173.008V171.44C1008.18 153.296 1020.84 142.88 1036.96 142.88C1052.87 142.88 1062.16 152.064 1064.52 164.384L1050.85 167.296C1049.96 160.576 1045.81 155.424 1037.3 155.424C1028.79 155.424 1022.29 161.136 1022.29 171.664V172.784C1022.29 183.312 1028.79 189.024 1037.3 189.024C1045.81 189.024 1049.96 184.208 1051.19 177.04L1064.85 180.288C1061.94 192.272 1052.87 201.568 1036.96 201.568Z" fill="#5C8DB5"/>
<path d="M966.699 201.568C954.827 201.568 945.867 195.184 945.867 183.76C945.867 172.336 954.827 166.4 967.371 166.4H982.603V163.264C982.603 158.112 979.467 154.304 972.299 154.304C965.243 154.304 962.107 157.888 961.099 162.928L948.107 158.56C950.795 150.16 958.075 142.88 972.523 142.88C987.083 142.88 996.267 150.384 996.267 164.272V184.992C996.267 187.232 997.387 188.352 999.403 188.352H1003.88V200H994.475C988.987 200 984.955 197.088 984.955 192.608V192.496H982.827C981.819 195.296 978.347 201.568 966.699 201.568ZM969.163 190.144C977.003 190.144 982.603 185.44 982.603 178.048V176.928H968.379C963.115 176.928 959.979 179.28 959.979 183.312C959.979 187.344 963.115 190.144 969.163 190.144Z" fill="#5C8DB5"/>
<path d="M895.261 200H880.477V121.6H914.525C929.197 121.6 938.941 129.888 938.941 142.544V143.888C938.941 153.296 933.901 159.008 927.293 161.696V163.712C933.229 164.048 936.701 168.08 936.701 174.352V200H921.917V176.48C921.917 172.896 920.237 170.432 915.869 170.432H895.261V200ZM895.261 135.04V156.992H912.957C919.901 156.992 924.157 152.848 924.157 146.576V145.456C924.157 139.184 920.125 135.04 912.957 135.04H895.261Z" fill="#5C8DB5"/>
<path d="M867.75 177.824H834.598V165.056H867.75V177.824Z" fill="#5C8DB5"/>
<path d="M776.361 200H761.129L781.737 121.6H807.497L828.105 200H812.873L808.617 182.752H780.617L776.361 200ZM793.609 130.896L784.089 169.088H805.145L795.625 130.896H793.609Z" fill="#5C8DB5"/>
<path d="M754.652 177.824H721.5V165.056H754.652V177.824Z" fill="#5C8DB5"/>
<path d="M708.327 200H694.215V121.6H708.327V200Z" fill="#5C8DB5"/>
<path d="M680.815 200H666.703V121.6H680.815V200Z" fill="#5C8DB5"/>
<path d="M626.796 201.568C610.22 201.568 597.676 191.04 597.676 173.12V171.328C597.676 153.408 610.22 142.88 626.796 142.88C643.372 142.88 655.916 153.408 655.916 171.328V173.12C655.916 191.04 643.372 201.568 626.796 201.568ZM626.796 189.024C635.42 189.024 641.804 183.2 641.804 172.784V171.664C641.804 161.248 635.532 155.424 626.796 155.424C618.06 155.424 611.788 161.248 611.788 171.664V172.784C611.788 183.2 618.172 189.024 626.796 189.024Z" fill="#5C8DB5"/>
<path d="M546.175 200H531.391V121.6H565.439C580.111 121.6 589.855 129.888 589.855 142.544V143.888C589.855 153.296 584.815 159.008 578.207 161.696V163.712C584.143 164.048 587.615 168.08 587.615 174.352V200H572.831V176.48C572.831 172.896 571.151 170.432 566.783 170.432H546.175V200ZM546.175 135.04V156.992H563.871C570.815 156.992 575.071 152.848 575.071 146.576V145.456C575.071 139.184 571.039 135.04 563.871 135.04H546.175Z" fill="#5C8DB5"/>
<path d="M1164.15 290.896C1154.61 290.896 1148.21 284.432 1148.21 274.576V273.808C1148.21 263.952 1154.61 257.488 1163.96 257.488C1173.11 257.488 1179.25 263.952 1179.25 273.616V276.176H1155.32C1155.51 281.36 1159.29 284.752 1164.34 284.752C1169.14 284.752 1171.25 282.256 1172.53 279.504L1178.36 282.448C1176.5 286.032 1172.73 290.896 1164.15 290.896ZM1155.38 270.864H1172.15C1171.77 266.448 1168.57 263.632 1163.89 263.632C1159.09 263.632 1156.02 266.448 1155.38 270.864Z" fill="#FEAE0E"/>
<path d="M1130.42 290H1123.44V258.384H1130.29V262.096H1131.38C1132.34 259.472 1134.58 258.256 1137.84 258.256H1141.62V264.528H1137.65C1133.36 264.528 1130.42 266.832 1130.42 271.568V290Z" fill="#FEAE0E"/>
<path d="M1093.54 290.512C1086.31 290.512 1081.19 285.392 1081.19 277.328V258.384H1088.16V276.816C1088.16 282.128 1090.92 284.56 1095.65 284.56C1100.9 284.56 1104.29 280.912 1104.29 274.384V258.384H1111.27V290H1104.42V285.456H1103.33C1102.18 287.888 1099.49 290.512 1093.54 290.512Z" fill="#FEAE0E"/>
<path d="M1070.31 290H1061.54C1057.57 290 1055.01 287.44 1055.01 283.408V264.272H1046.56V258.384H1055.01V248.08H1062.05V258.384H1071.27V264.272H1062.05V282.192C1062.05 283.472 1062.63 284.112 1063.84 284.112H1070.31V290Z" fill="#FEAE0E"/>
<path d="M1025.11 290.896C1015.89 290.896 1008.85 284.88 1008.85 274.64V273.808C1008.85 263.504 1015.89 257.488 1025.11 257.488C1034.13 257.488 1039.32 262.928 1040.6 269.712L1033.75 271.12C1033.24 267.024 1030.61 263.76 1025.24 263.76C1019.92 263.76 1015.83 267.408 1015.83 273.872V274.512C1015.83 280.976 1019.92 284.624 1025.24 284.624C1030.61 284.624 1033.24 281.552 1034 277.2L1040.79 278.8C1039.25 285.456 1034.13 290.896 1025.11 290.896Z" fill="#FEAE0E"/>
<path d="M980.485 290.512C973.253 290.512 968.133 285.392 968.133 277.328V258.384H975.109V276.816C975.109 282.128 977.861 284.56 982.597 284.56C987.845 284.56 991.237 280.912 991.237 274.384V258.384H998.213V290H991.365V285.456H990.277C989.125 287.888 986.437 290.512 980.485 290.512Z" fill="#FEAE0E"/>
<path d="M947.992 290H941.016V258.384H947.864V262.096H948.952C949.912 259.472 952.152 258.256 955.416 258.256H959.192V264.528H955.224C950.936 264.528 947.992 266.832 947.992 271.568V290Z" fill="#FEAE0E"/>
<path d="M929.818 290H921.05C917.082 290 914.522 287.44 914.522 283.408V264.272H906.074V258.384H914.522V248.08H921.562V258.384H930.778V264.272H921.562V282.192C921.562 283.472 922.138 284.112 923.354 284.112H929.818V290Z" fill="#FEAE0E"/>
<path d="M886.575 290.896C878.447 290.896 872.815 287.248 871.727 280.208L878.255 278.608C879.087 283.664 882.543 285.264 886.575 285.264C890.671 285.264 892.847 283.6 892.847 281.168C892.847 278.8 890.863 277.84 886.831 277.072L884.719 276.752C878.255 275.536 873.007 273.04 873.007 267.024C873.007 260.944 877.871 257.488 885.295 257.488C892.399 257.488 897.135 260.944 898.543 266.256L892.015 268.176C891.311 264.528 888.815 263.12 885.295 263.12C881.839 263.12 879.791 264.464 879.791 266.704C879.791 269.136 881.839 270.096 885.167 270.672L887.215 270.992C894.191 272.272 899.695 274.32 899.695 280.784C899.695 287.248 894.511 290.896 886.575 290.896Z" fill="#FEAE0E"/>
<path d="M844.129 290.896C837.409 290.896 832.289 287.312 832.289 280.848C832.289 274.384 837.409 271.056 844.385 271.056H853.793V269.136C853.793 265.68 851.681 263.248 847.265 263.248C842.849 263.248 840.737 265.552 840.033 268.816L833.505 266.704C835.041 261.712 839.201 257.488 847.329 257.488C855.521 257.488 860.577 261.84 860.577 269.584V282.256C860.577 283.536 861.217 284.176 862.369 284.176H865.057V290H860.001C856.993 290 854.881 288.336 854.881 285.712V285.584H853.793C852.961 287.504 850.721 290.896 844.129 290.896ZM845.281 285.136C850.273 285.136 853.793 282.064 853.793 277.072V276.432H844.833C841.505 276.432 839.329 277.904 839.329 280.656C839.329 283.344 841.505 285.136 845.281 285.136Z" fill="#FEAE0E"/>
<path d="M814.816 290H807.84V258.384H814.688V262.096H815.776C816.736 259.472 818.976 258.256 822.24 258.256H826.016V264.528H822.048C817.76 264.528 814.816 266.832 814.816 271.568V290Z" fill="#FEAE0E"/>
<path d="M789.761 290H782.785V264.272H774.145V258.384H782.785V251.792C782.785 247.76 785.281 245.2 789.313 245.2H797.441V251.024H791.617C790.401 251.024 789.761 251.664 789.761 252.944V258.384H798.657V264.272H789.761V290Z" fill="#FEAE0E"/>
<path d="M743.132 290H736.156V258.384H743.004V262.992H744.092C745.244 260.496 747.932 257.872 753.884 257.872C761.116 257.872 766.236 262.992 766.236 271.056V290H759.26V271.568C759.26 266.32 756.508 263.824 751.772 263.824C746.524 263.824 743.132 267.472 743.132 274V290Z" fill="#FEAE0E"/>
<path d="M724.262 290H716.902V245.2H724.262V290Z" fill="#FEAE0E"/>
<path d="M677.828 290H670.852V258.384H677.7V262.096H678.788C679.748 259.472 681.988 258.256 685.252 258.256H689.028V264.528H685.06C680.772 264.528 677.828 266.832 677.828 271.568V290Z" fill="#FEAE0E"/>
<path d="M641.082 290.896C634.362 290.896 629.242 287.312 629.242 280.848C629.242 274.384 634.362 271.056 641.338 271.056H650.746V269.136C650.746 265.68 648.634 263.248 644.218 263.248C639.802 263.248 637.69 265.552 636.986 268.816L630.458 266.704C631.994 261.712 636.154 257.488 644.282 257.488C652.474 257.488 657.53 261.84 657.53 269.584V282.256C657.53 283.536 658.17 284.176 659.322 284.176H662.01V290H656.954C653.946 290 651.834 288.336 651.834 285.712V285.584H650.746C649.914 287.504 647.674 290.896 641.082 290.896ZM642.234 285.136C647.226 285.136 650.746 282.064 650.746 277.072V276.432H641.786C638.458 276.432 636.282 277.904 636.282 280.656C636.282 283.344 638.458 285.136 642.234 285.136Z" fill="#FEAE0E"/>
<path d="M619.21 290H612.234V245.2H619.21V290Z" fill="#FEAE0E"/>
<path d="M585.208 290.896C575.736 290.896 568.824 284.752 568.824 274.704V273.744C568.824 263.632 575.736 257.488 585.208 257.488C594.68 257.488 601.656 263.632 601.656 273.744V274.704C601.656 284.752 594.68 290.896 585.208 290.896ZM585.208 284.624C590.712 284.624 594.616 280.912 594.616 274.512V273.872C594.616 267.536 590.776 263.76 585.208 263.76C579.64 263.76 575.8 267.536 575.8 273.872V274.512C575.8 280.912 579.704 284.624 585.208 284.624Z" fill="#FEAE0E"/>
<path d="M543.904 290.896C533.728 290.896 526.496 285.328 526.496 275.344V273.68H533.792V275.344C533.792 281.424 537.696 284.432 543.904 284.432C550.048 284.432 553.248 281.552 553.248 277.52C553.248 273.36 549.728 271.952 543.904 270.608L541.792 270.16C532.96 268.112 527.52 265.04 527.52 257.04C527.52 249.104 533.728 244.304 543.136 244.304C552.48 244.304 559.456 249.104 559.456 258.64V260.816H552.224V258.64C552.224 253.008 548.576 250.768 543.136 250.768C537.696 250.768 534.816 253.008 534.816 256.848C534.816 260.688 537.632 262.352 543.264 263.568L545.376 264.08C554.272 266.064 560.544 269.2 560.544 277.328C560.544 285.392 554.016 290.896 543.904 290.896Z" fill="#FEAE0E"/>
<g clip-path="url(#clip1_303_322)">
<g clip-path="url(#clip2_303_322)">
<path d="M203.884 195.861C215.717 195.481 229.132 195.798 241.144 195.795L308.116 195.828C311.22 200.988 313.872 206.248 316.741 211.528C322.279 221.908 328.039 232.17 334.017 242.303L307.795 242.252L223.672 242.266C208.541 242.309 193.411 242.264 178.281 242.13C187.026 226.825 195.561 211.4 203.884 195.861Z" fill="#5C8DB5"/>
<path d="M317.105 195.892C335.303 195.374 355.935 195.845 374.36 195.832L404.8 195.812C407.971 195.811 423.442 195.367 425.332 196.613C430.672 200.132 437.201 204.855 442.477 208.596C452.33 215.475 462.115 222.45 471.831 229.521C474.412 231.373 488.179 240.888 489.607 242.4C472.745 242.616 455.404 242.385 438.512 242.365L343.732 242.305C341.043 238.333 337.785 231.93 335.24 227.569C331.016 220.402 326.844 213.205 322.725 205.976C321.648 204.117 317.532 197.386 317.105 195.892Z" fill="#5C8DB5"/>
<path d="M101.039 195.904L194.956 195.809C191.363 203.323 185.138 212.9 180.886 220.413C177.287 226.773 172.05 236.545 168.018 242.284L116.88 242.285C85.2964 242.02 53.712 242.013 22.1289 242.262C28.5427 237.459 35.1833 233.06 41.6752 228.382C56.6908 217.404 71.8452 206.619 87.1345 196.027C91.4958 195.827 96.6195 195.926 101.039 195.904Z" fill="#5C8DB5"/>
<path d="M300.051 133.956C318.728 133.774 337.686 133.991 356.391 133.976L376.615 133.941C380.346 133.934 384.155 133.872 387.878 134.031C388.595 134.062 389.606 134.219 390.222 134.6C394.763 137.408 399.357 140.364 403.839 143.254L435.179 163.906C437.531 165.456 449.727 172.999 450.874 174.313C445.195 174.56 438.728 174.419 432.973 174.414H403.325C378.118 174.421 352.351 174.687 327.188 174.299C317.838 161.059 308.79 147.607 300.051 133.956Z" fill="#5C8DB5"/>
<path d="M122.565 133.92L212.012 133.942C203.691 147.25 193.787 160.967 185.392 174.218C173.59 174.397 161.787 174.462 149.984 174.414L60.7891 174.407C64.8734 171.321 73.7966 165.914 78.5116 162.796L122.565 133.92Z" fill="#5C8DB5"/>
<path d="M160.143 107.941C179.083 107.715 198.473 107.922 217.445 107.916L351.905 107.925L380.82 127.636C371.245 127.505 361.67 127.445 352.095 127.453C278.744 127.738 204.648 126.59 131.383 127.664C140.989 121.378 150.448 114.092 160.143 107.941Z" fill="#FEAE0E"/>
<path d="M217.791 134.025L294.982 134.088C299.658 141.603 304.412 149.069 309.241 156.487C312.922 162.234 316.897 168.729 320.858 174.214L293.783 174.294L191.289 174.237C191.944 173.062 195.992 166.897 196.563 166.21C200.03 162.039 214.845 135.535 217.791 134.025Z" fill="#5C8DB5"/>
<path d="M190.166 269.178L322.237 269.199C326.888 277.92 332.171 287.326 336.482 296.14L321.78 296.124L175.258 296.105C176.894 292.703 179.259 288.801 181.155 285.439L190.166 269.178Z" fill="#5C8DB5"/>
<path d="M58.6767 269.289C70.988 268.878 85.538 269.201 98.0124 269.182L178.687 269.237C173.774 277.854 168.585 287.665 163.584 296.065L139.594 296.088L19.5273 296.185C28.968 290.494 38.7661 282.407 48.008 276.179C50.4786 274.513 56.0699 270.27 58.6767 269.289Z" fill="#5C8DB5"/>
<path d="M333.113 269.189L453.76 269.321C458.09 271.926 463.428 275.897 467.665 278.885L491.844 296.046C487.393 296.353 480.031 296.118 475.426 296.11L445.208 296.085L348.522 296.051C347.238 293.365 344.6 289.17 343.049 286.494L333.113 269.189Z" fill="#5C8DB5"/>
<path d="M201.423 248.655C214.441 248.99 228.633 248.844 241.729 248.853L310.928 248.824C313.771 253.28 316.033 257.777 318.361 262.508C316.187 262.351 313.266 262.396 311.036 262.367L193.785 262.363C195.915 257.995 198.883 252.805 201.423 248.655Z" fill="#FEAE0E"/>
<path d="M189.434 248.758C189.459 250.175 183.314 260.671 182.19 262.619C169.299 261.998 153.746 262.369 140.663 262.366L66.9644 262.308L66.7375 262.134L66.7031 261.778C71.5606 257.897 79.1231 252.647 84.3675 248.904C96.1756 248.56 109.448 248.854 121.341 248.863L189.434 248.758Z" fill="#FEAE0E"/>
<path d="M322.762 248.867L426.967 248.91C429.791 250.581 433.945 253.954 436.834 255.972C439.149 257.588 443.999 260.708 445.735 262.318C443.519 262.572 436.432 262.387 433.962 262.379L409.864 262.341L329.66 262.598C327.045 258.236 324.58 253.612 322.762 248.867Z" fill="#FEAE0E"/>
<path d="M203.746 179.354L204.275 179.364C204.318 180.822 199.757 188.324 198.797 190.012L97.1702 189.852L96.0026 189.824L95.6914 189.412C96.4714 188.539 108.057 180.479 109.417 179.633C118.736 179.132 131.558 179.523 141.207 179.518L203.746 179.354Z" fill="#FEAE0E"/>
<path d="M307.859 179.501C338.896 179.619 371.334 179.945 402.274 179.414C405.059 181.314 414.978 187.917 416.734 189.83C406.399 190.276 392.984 189.852 382.408 189.875L313.349 189.973C311.471 186.508 309.641 183.017 307.859 179.501Z" fill="#FEAE0E"/>
<path d="M213.332 179.242C222.241 179.759 234.458 179.425 243.615 179.426L299.667 179.436C301.583 183.118 303.315 186.425 305.442 189.988L299.55 189.923L241.361 189.988C230.24 189.988 218.358 189.725 207.301 190.04C209.273 186.42 211.284 182.82 213.332 179.242Z" fill="#FEAE0E"/>
</g>
</g>
</g>
<defs>
<clipPath id="clip0_303_322">
<rect width="1200" height="400" fill="white"/>
</clipPath>
<clipPath id="clip1_303_322">
<rect width="512" height="512" fill="white" transform="translate(0 -54)"/>
</clipPath>
<clipPath id="clip2_303_322">
<rect width="640" height="640" fill="white" transform="translate(-64 -118)"/>
</clipPath>
</defs>
</svg>
